<svg width="105" height="56" viewBox="0 0 105 56" fill="none" xmlns="http://www.w3.org/2000/svg">
<path d="M84.5376 21.8957C84.6151 20.113 84.8089 18.072 85.1189 15.7726C85.3256 14.4034 85.4806 13.0728 85.584 11.781C85.6098 11.4969 85.6227 11.0577 85.6227 10.4634C85.6227 9.61086 85.571 8.48701 85.4677 7.09189C85.3644 5.85178 85.3127 4.98629 85.3127 4.49541C85.3127 3.07445 85.5969 2.00228 86.1653 1.27888C86.7595 0.555484 87.8704 0.193787 89.4981 0.193787C90.764 0.193787 91.7199 0.413388 92.3658 0.852592C93.0117 1.26596 93.438 1.86018 93.6447 2.63525C93.8772 3.38448 93.9934 4.36623 93.9934 5.58051C93.9934 6.35557 93.9805 6.94979 93.9547 7.36316L93.9159 9.57211C93.9159 10.0113 93.9418 10.7476 93.9934 11.781L94.1097 13.99C94.1355 15.0751 94.1872 15.9147 94.2647 16.509C94.3422 17.0773 94.4843 17.4132 94.691 17.5165C94.7943 17.5682 95.014 17.3615 95.3498 16.8965C95.6857 16.4315 96.0732 16.031 96.5124 15.6951C96.9775 15.3593 97.5588 15.1913 98.2563 15.1913C99.4706 15.1913 100.388 15.7339 101.008 16.819C101.628 17.8782 101.938 19.1829 101.938 20.7331C101.938 21.7148 101.809 22.6449 101.55 23.5233C101.318 24.4017 100.982 25.0993 100.543 25.616C99.8969 26.3911 99.1089 26.8949 98.1788 27.1274C97.2487 27.3599 95.9182 27.4762 94.1872 27.4762L89.5756 27.4374H89.343C87.5345 27.4374 86.2557 26.9078 85.5064 25.8485C84.7831 24.7893 84.4601 23.4717 84.5376 21.8957ZM86.6303 5.69677C86.6561 5.87762 86.7078 6.03263 86.7853 6.16181C86.8887 6.26515 87.0049 6.31682 87.1341 6.31682C87.2633 6.31682 87.3666 6.23932 87.4441 6.0843C87.5216 5.90345 87.5345 5.67093 87.4829 5.38674C87.2762 4.27581 87.1728 3.4749 87.1728 2.98403C87.1728 2.49315 87.2762 2.14437 87.4829 1.93769C87.7154 1.731 88.09 1.62766 88.6067 1.62766C88.7359 1.62766 89.0847 1.6535 89.6531 1.70517C89.7564 1.731 89.8985 1.74392 90.0794 1.74392C90.3119 1.74392 90.4927 1.71808 90.6219 1.66641C90.7769 1.58891 90.8544 1.5114 90.8544 1.43389C90.8544 1.33055 90.7382 1.24013 90.5056 1.16262C90.2731 1.05928 89.9631 1.0076 89.5756 1.0076C88.4646 1.0076 87.6766 1.21429 87.2116 1.62766C86.7466 2.04103 86.514 2.82902 86.514 3.99162C86.514 4.45666 86.5528 5.02504 86.6303 5.69677ZM97.7138 16.2377C97.2487 16.341 96.8612 16.5348 96.5512 16.819C96.2411 17.1032 95.9699 17.3874 95.7373 17.6716C95.5307 17.9558 95.3886 18.1495 95.3111 18.2529C95.1819 18.4337 95.1173 18.5887 95.1173 18.7179C95.1173 18.8471 95.169 18.9117 95.2723 18.9117C95.4015 18.9117 95.5307 18.8083 95.6598 18.6016C96.0215 18.0849 96.3316 17.7232 96.5899 17.5165C96.8741 17.284 97.3004 17.1032 97.8688 16.974C97.998 16.9482 98.1013 16.8965 98.1788 16.819C98.2563 16.7415 98.2951 16.6511 98.2951 16.5477C98.2951 16.4444 98.2434 16.3669 98.1401 16.3152C98.0367 16.2377 97.8946 16.2119 97.7138 16.2377Z" fill="#26434C"/>
<path d="M65.9558 21.8957C66.0333 20.113 66.2271 18.072 66.5371 15.7726C66.7438 14.4034 66.8988 13.0728 67.0022 11.781C67.028 11.4969 67.0409 11.0577 67.0409 10.4634C67.0409 9.61086 66.9893 8.48701 66.8859 7.09189C66.7826 5.85178 66.7309 4.98629 66.7309 4.49541C66.7309 3.07445 67.0151 2.00228 67.5835 1.27888C68.1777 0.555484 69.2886 0.193787 70.9163 0.193787C72.1822 0.193787 73.1381 0.413388 73.784 0.852592C74.4299 1.26596 74.8562 1.86018 75.0629 2.63525C75.2954 3.38448 75.4117 4.36623 75.4117 5.58051C75.4117 6.35557 75.3987 6.94979 75.3729 7.36316L75.3342 9.57211C75.3342 10.0113 75.36 10.7476 75.4117 11.781L75.5279 13.99C75.5538 15.0751 75.6054 15.9147 75.6829 16.509C75.7604 17.0773 75.9025 17.4132 76.1092 17.5165C76.2126 17.5682 76.4322 17.3615 76.768 16.8965C77.1039 16.4315 77.4914 16.031 77.9306 15.6951C78.3957 15.3593 78.977 15.1913 79.6745 15.1913C80.8888 15.1913 81.806 15.7339 82.426 16.819C83.0461 17.8782 83.3561 19.1829 83.3561 20.7331C83.3561 21.7148 83.2269 22.6449 82.9686 23.5233C82.736 24.4017 82.4002 25.0993 81.961 25.616C81.3151 26.3911 80.5271 26.8949 79.597 27.1274C78.6669 27.3599 77.3364 27.4762 75.6054 27.4762L70.9938 27.4374H70.7612C68.9528 27.4374 67.6739 26.9078 66.9247 25.8485C66.2013 24.7893 65.8783 23.4717 65.9558 21.8957ZM68.0485 5.69677C68.0743 5.87762 68.126 6.03263 68.2035 6.16181C68.3069 6.26515 68.4231 6.31682 68.5523 6.31682C68.6815 6.31682 68.7848 6.23932 68.8623 6.0843C68.9398 5.90345 68.9528 5.67093 68.9011 5.38674C68.6944 4.27581 68.5911 3.4749 68.5911 2.98403C68.5911 2.49315 68.6944 2.14437 68.9011 1.93769C69.1336 1.731 69.5082 1.62766 70.0249 1.62766C70.1541 1.62766 70.5029 1.6535 71.0713 1.70517C71.1746 1.731 71.3167 1.74392 71.4976 1.74392C71.7301 1.74392 71.9109 1.71808 72.0401 1.66641C72.1951 1.58891 72.2726 1.5114 72.2726 1.43389C72.2726 1.33055 72.1564 1.24013 71.9239 1.16262C71.6913 1.05928 71.3813 1.0076 70.9938 1.0076C69.8828 1.0076 69.0949 1.21429 68.6298 1.62766C68.1648 2.04103 67.9323 2.82902 67.9323 3.99162C67.9323 4.45666 67.971 5.02504 68.0485 5.69677ZM79.132 16.2377C78.6669 16.341 78.2794 16.5348 77.9694 16.819C77.6594 17.1032 77.3881 17.3874 77.1556 17.6716C76.9489 17.9558 76.8068 18.1495 76.7293 18.2529C76.6001 18.4337 76.5355 18.5887 76.5355 18.7179C76.5355 18.8471 76.5872 18.9117 76.6905 18.9117C76.8197 18.9117 76.9489 18.8083 77.0781 18.6016C77.4398 18.0849 77.7498 17.7232 78.0081 17.5165C78.2923 17.284 78.7186 17.1032 79.287 16.974C79.4162 16.9482 79.5195 16.8965 79.597 16.819C79.6745 16.7415 79.7133 16.6511 79.7133 16.5477C79.7133 16.4444 79.6616 16.3669 79.5583 16.3152C79.4549 16.2377 79.3128 16.2119 79.132 16.2377Z" fill="#26434C"/>
<path d="M47.9794 21.8957C48.031 20.0097 48.2119 17.8007 48.5219 15.2689C48.6511 14.2613 48.7803 13.0987 48.9094 11.781C48.9353 11.5485 48.9482 11.1997 48.9482 10.7347C48.9482 10.0113 48.8707 8.92622 48.7157 7.47942C48.6898 7.19523 48.6511 6.74311 48.5994 6.12305C48.5477 5.47716 48.5219 4.93462 48.5219 4.49541C48.5219 3.10029 48.7803 2.04103 49.297 1.31763C49.8395 0.568401 50.8342 0.193787 52.281 0.193787H58.3653C59.9671 0.219622 61.0909 0.40047 61.7368 0.736333C62.4085 1.04636 62.7444 1.731 62.7444 2.79026C62.7444 3.59117 62.6927 4.22414 62.5894 4.68918C62.4861 5.15422 62.2535 5.52884 61.8918 5.81303C61.556 6.09722 61.0263 6.23931 60.3029 6.23931L56.5826 6.27807C56.4018 6.27807 56.2338 6.36849 56.0788 6.54934C55.9496 6.70435 55.8851 6.8852 55.8851 7.09189C55.8851 7.47942 56.1305 7.67319 56.6214 7.67319L59.2954 7.63444C60.1738 7.63444 60.7938 7.69902 61.1555 7.8282C61.5172 7.95738 61.7627 8.22865 61.8918 8.64202C62.021 9.02956 62.1114 9.7142 62.1631 10.696C62.1889 11.5485 62.0856 12.2073 61.8531 12.6724C61.6464 13.1374 61.3364 13.4862 60.923 13.7187C60.5096 13.9512 59.8637 14.2225 58.9853 14.5325C58.0036 14.8684 57.2414 15.1655 56.6989 15.4239C56.2855 15.6306 56.0788 15.9277 56.0788 16.3152C56.0788 16.496 56.1434 16.664 56.2726 16.819C56.4276 16.9482 56.6472 17.0128 56.9314 17.0128C57.2156 17.0128 57.5127 16.9482 57.8227 16.819C58.1328 16.664 58.5074 16.4315 58.9466 16.1214C58.9982 16.0698 59.2308 15.9277 59.6441 15.6951C60.0575 15.4368 60.458 15.2689 60.8455 15.1913C60.9488 15.1655 61.1038 15.1526 61.3105 15.1526C62.3956 15.1526 63.2353 15.721 63.8295 16.8577C64.4496 17.9687 64.7596 19.2863 64.7596 20.8106C64.7596 21.7665 64.6304 22.6837 64.372 23.5621C64.1137 24.4147 63.7391 25.0993 63.2482 25.616C62.5248 26.3911 61.711 26.8949 60.8067 27.1274C59.9283 27.3599 58.6495 27.4762 56.9701 27.4762L53.0948 27.4374H52.8623C51.0538 27.4374 49.7749 26.9078 49.0257 25.8485C48.2765 24.7893 47.9277 23.4717 47.9794 21.8957ZM49.4907 5.503C49.4907 5.68385 49.5295 5.83886 49.607 5.96804C49.7103 6.07138 49.8137 6.12305 49.917 6.12305C50.072 6.12305 50.1883 6.04555 50.2658 5.89053C50.3692 5.70968 50.395 5.47716 50.3433 5.19297C50.1883 4.3404 50.1108 3.66867 50.1108 3.1778C50.1108 2.63525 50.2141 2.26063 50.4208 2.05395C50.6533 1.84726 51.0409 1.74392 51.5834 1.74392C51.971 1.74392 52.6427 1.80851 53.5986 1.93769L53.9474 1.97644C54.2316 1.97644 54.4383 1.93769 54.5674 1.86018C54.7225 1.78267 54.8 1.67933 54.8 1.55015C54.8 1.42097 54.7095 1.30471 54.5287 1.20137C54.3478 1.09803 54.0895 1.04636 53.7536 1.04636C52.3327 1.04636 51.3251 1.16262 50.7309 1.39514C50.1625 1.62766 49.8137 2.01519 49.6845 2.55774C49.5553 3.10029 49.4907 4.08204 49.4907 5.503ZM63.9458 20.1518C63.9458 19.2475 63.7391 18.382 63.3257 17.5553C62.9123 16.7286 62.331 16.3152 61.5818 16.3152C61.1943 16.3152 60.8067 16.4185 60.4192 16.6252C60.1092 16.7802 59.9542 16.9611 59.9542 17.1678C59.9542 17.2969 60.0446 17.3615 60.2254 17.3615C60.4321 17.3615 60.6517 17.2969 60.8842 17.1678C61.1684 16.9869 61.4655 16.8965 61.7756 16.8965C62.3698 16.8965 62.809 17.284 63.0932 18.0591C63.3774 18.8083 63.4807 19.5834 63.4032 20.3843V20.5393C63.4032 20.6943 63.429 20.8364 63.4807 20.9656C63.5324 21.0689 63.5841 21.1206 63.6357 21.1206C63.7132 21.1206 63.7778 21.0431 63.8295 20.8881C63.907 20.7072 63.9458 20.4618 63.9458 20.1518Z" fill="#26434C"/>
<path d="M23.1151 5.73552C23.0376 4.13371 23.3735 2.8161 24.1227 1.78267C24.872 0.723414 26.2154 0.193787 28.1531 0.193787C30.0908 0.193787 31.46 0.762168 32.261 1.89893C33.0619 3.0357 33.4365 4.44374 33.3848 6.12305C33.359 7.389 33.2815 8.59035 33.1523 9.72712C33.0231 10.8639 32.8422 12.2073 32.6097 13.7575C32.403 15.2818 32.3385 16.0439 32.416 16.0439C32.6226 16.0698 32.9585 15.3593 33.4236 13.9125C33.8369 12.7499 34.1728 11.9231 34.4311 11.4323C34.7153 10.9156 35.0254 10.6572 35.3612 10.6572C35.8521 10.6572 36.2655 10.9543 36.6013 11.5485C36.963 12.1169 37.3893 13.0341 37.8802 14.3C37.9319 14.4292 38.061 14.8296 38.2677 15.5014C38.4744 16.1473 38.6423 16.4573 38.7715 16.4315C38.849 16.4315 38.7457 15.7597 38.4615 14.4163C38.0998 12.5044 37.8156 10.9543 37.6089 9.76587C37.4281 8.57743 37.3118 7.29857 37.2601 5.92929C37.1826 4.37915 37.596 3.0357 38.5002 1.89893C39.4045 0.762168 40.8125 0.193787 42.7244 0.193787C44.352 0.193787 45.5146 0.775087 46.2122 1.93769C46.9097 3.07445 47.2327 4.46958 47.181 6.12305C47.1552 7.36316 47.0777 8.46117 46.9485 9.41709C46.8193 10.3472 46.6385 11.4452 46.4059 12.7111C46.0701 14.8296 45.9021 15.876 45.9021 15.8502C45.7988 16.496 45.7471 17.1936 45.7471 17.9428C45.7471 18.7696 45.8246 19.8288 45.9796 21.1206C46.1347 22.3866 46.1993 23.2521 46.1734 23.7171C46.1476 24.983 45.773 25.9002 45.0496 26.4686C44.3262 27.0111 43.3315 27.3341 42.0656 27.4374L41.4067 27.4762C40.4508 27.4762 39.6499 27.2824 39.004 26.8949C38.384 26.4815 37.8414 25.8614 37.3764 25.0347C37.0147 24.363 36.6142 23.3812 36.175 22.0894C35.9684 21.3402 35.7875 20.9656 35.6325 20.9656C35.5292 20.9656 35.4387 21.1077 35.3612 21.3919C35.2837 21.6502 35.2062 21.9732 35.1287 22.3607C34.8445 23.9367 34.457 25.151 33.9661 26.0035C33.7077 26.4169 33.2039 26.8044 32.4547 27.1661C31.7055 27.5278 30.8658 27.6958 29.9357 27.6699C28.0239 27.6183 26.6546 27.2178 25.8279 26.4686C25.027 25.7194 24.6265 24.5567 24.6265 22.9808C24.6265 22.3607 24.6524 21.8698 24.704 21.5081C24.7299 21.379 24.7815 21.0044 24.859 20.3843C24.9366 19.7384 24.9753 19.015 24.9753 18.2141C24.9753 17.5166 24.9366 16.7286 24.859 15.8502C24.7299 14.5842 24.4715 13.202 24.084 11.7035C23.7998 10.4893 23.5802 9.46876 23.4252 8.64202C23.296 7.78945 23.1927 6.82061 23.1151 5.73552ZM24.394 5.73552C24.4198 5.91637 24.4715 6.07138 24.549 6.20056C24.6524 6.3039 24.7557 6.35557 24.859 6.35557C25.0399 6.35557 25.1303 6.18764 25.1303 5.85178C25.1303 5.67093 25.1174 5.52884 25.0916 5.42549C24.9366 4.65042 24.859 4.03037 24.859 3.56533C24.859 2.86777 25.0528 2.38981 25.4404 2.13145C25.8279 1.84726 26.5125 1.66641 27.4943 1.58891C27.7785 1.56307 27.9981 1.5114 28.1531 1.43389C28.3339 1.33055 28.4244 1.24013 28.4244 1.16262C28.4244 1.05928 28.3469 0.994688 28.1918 0.968852C28.0627 0.91718 27.8689 0.904263 27.6105 0.9301C26.4221 1.08511 25.5695 1.42098 25.0528 1.93769C24.5619 2.4544 24.3165 3.2553 24.3165 4.3404C24.3165 4.93462 24.3423 5.39966 24.394 5.73552ZM39.2753 13.3699C39.3528 13.6025 39.4691 13.7187 39.6241 13.7187C39.8049 13.7187 39.8954 13.6025 39.8954 13.3699C39.8954 13.2149 39.8437 13.047 39.7404 12.8661C39.5078 12.3236 39.327 11.639 39.1978 10.8122C39.0686 9.95964 39.0428 9.05539 39.1203 8.09948C39.1461 8.0478 39.159 7.9703 39.159 7.86696C39.159 7.71194 39.1203 7.59568 39.0428 7.51818C38.9911 7.41483 38.9265 7.36316 38.849 7.36316C38.7457 7.36316 38.6553 7.42775 38.5777 7.55693C38.5002 7.66027 38.4615 7.8282 38.4615 8.06072C38.4615 8.83579 38.5519 9.77879 38.7328 10.8897C38.9136 12.0007 39.0945 12.8274 39.2753 13.3699ZM32.8035 25.306C33.2169 24.7376 33.5011 24.1821 33.6561 23.6396C33.8111 23.0712 33.9273 22.4382 34.0049 21.7407V21.6632C34.0049 21.5081 33.979 21.379 33.9273 21.2756C33.9015 21.1465 33.8628 21.0819 33.8111 21.0819C33.6561 21.0819 33.5656 21.2885 33.5398 21.7019C33.4623 22.322 33.3331 22.8774 33.1523 23.3683C32.9973 23.8592 32.7002 24.3501 32.261 24.8409C32.1059 24.996 32.0284 25.1639 32.0284 25.3447C32.0284 25.5256 32.1189 25.616 32.2997 25.616C32.4547 25.616 32.6226 25.5127 32.8035 25.306Z" fill="#26434C"/>
<path d="M5.30209 24.3759C3.88113 22.8774 3.17065 21.3014 3.17065 19.648C3.17065 18.7437 3.39026 17.9041 3.82946 17.129C4.26867 16.3539 4.83705 15.7468 5.53461 15.3076C6.25801 14.8425 6.99432 14.61 7.74355 14.61C8.80281 14.61 9.64247 14.7909 10.2625 15.1526C10.8826 15.5143 11.4897 16.0051 12.0839 16.6252C12.4198 16.9611 12.6652 17.1936 12.8202 17.3228C13.0011 17.4519 13.2078 17.5165 13.4403 17.5165C13.5953 17.5165 13.7245 17.4778 13.8278 17.4003C13.9312 17.3228 13.9829 17.2194 13.9829 17.0902C13.9829 16.7544 13.647 16.2893 12.9753 15.6951C12.071 14.9717 10.6501 13.9383 8.71239 12.5948L7.85981 12.0135C6.36135 10.9801 5.31501 9.92087 4.72079 8.83577C4.15241 7.72484 3.9328 6.69142 4.06198 5.7355C4.2945 3.97868 5.09541 2.58356 6.46469 1.55013C7.85981 0.516711 9.90083 0 12.5877 0C14.9904 0 16.9281 0.34878 18.4007 1.04634C19.8734 1.7439 20.868 2.4673 21.3847 3.21653C21.824 3.83658 22.0436 4.55998 22.0436 5.38672C22.0436 6.08428 21.8756 6.74309 21.5398 7.36314C21.2039 7.95736 20.7905 8.38365 20.2997 8.642C19.6279 8.95203 19.0595 9.10705 18.5945 9.10705C18.1811 9.10705 17.7548 9.01662 17.3156 8.83577C16.9023 8.65492 16.3081 8.3449 15.533 7.90569C13.6987 6.87227 12.6006 6.35555 12.2389 6.35555C12.0581 6.35555 11.9677 6.44598 11.9677 6.62683C11.9677 6.83351 12.1614 7.07895 12.549 7.36314C12.9365 7.64733 13.6082 8.08654 14.5642 8.68076C15.6234 9.32665 16.5664 9.93378 17.3932 10.5022C18.2457 11.0705 19.0595 11.7035 19.8346 12.4011C21.4881 13.8737 22.3148 15.9018 22.3148 18.4854C22.3148 19.2346 22.2373 19.9838 22.0823 20.7331C21.6948 22.6449 20.7776 24.2596 19.3308 25.5772C17.884 26.869 15.8818 27.5149 13.324 27.5149C11.7997 27.5149 10.3659 27.2953 9.02242 26.8561C7.7048 26.4169 6.46469 25.5902 5.30209 24.3759ZM6.85223 9.06829C7.18809 9.37832 7.52395 9.53333 7.85981 9.53333C8.09233 9.53333 8.20859 9.44291 8.20859 9.26206C8.20859 9.02954 8.00191 8.75826 7.58854 8.44824C6.27093 7.59566 5.61212 6.65266 5.61212 5.61924C5.61212 5.05086 5.80588 4.54706 6.19342 4.10786C6.58095 3.64282 7.11058 3.30695 7.78231 3.10027C8.0665 2.99693 8.2861 2.86775 8.44111 2.71274C8.62196 2.55772 8.71239 2.40271 8.71239 2.24769C8.71239 2.09268 8.59613 2.01518 8.36361 2.01518C8.15692 2.01518 7.9244 2.07976 7.66605 2.20894C6.89098 2.57064 6.27093 3.07443 5.80588 3.72032C5.36668 4.36621 5.14708 5.06378 5.14708 5.81301C5.14708 7.02728 5.71546 8.11237 6.85223 9.06829ZM10.3013 11.5873C10.3529 11.5356 10.3788 11.471 10.3788 11.3935C10.3788 11.1093 10.2109 10.8251 9.87499 10.5409C9.66831 10.3601 9.46162 10.2567 9.25494 10.2309C9.04825 10.1792 8.90616 10.2051 8.82865 10.3084C8.77698 10.3601 8.75114 10.4247 8.75114 10.5022C8.75114 10.7347 8.90616 11.006 9.21618 11.316C9.42287 11.4968 9.62955 11.626 9.83624 11.7035C10.0688 11.7552 10.2238 11.7164 10.3013 11.5873ZM17.5094 25.6547C19.1371 24.8797 20.1576 23.9367 20.5709 22.8257C20.9843 21.689 21.1522 20.3972 21.0747 18.9504C21.0747 18.8471 21.0489 18.7566 20.9972 18.6791C20.9455 18.6016 20.8939 18.5629 20.8422 18.5629C20.7905 18.5629 20.7389 18.6145 20.6872 18.7179C20.6355 18.8212 20.6226 18.9504 20.6484 19.1054C20.7259 20.3714 20.4934 21.5598 19.9509 22.6707C19.4083 23.7558 18.4007 24.5051 16.9281 24.9184C16.6956 24.9959 16.5793 25.1122 16.5793 25.2672C16.5793 25.3705 16.6439 25.4739 16.7731 25.5772C16.9023 25.6806 17.0444 25.7322 17.1994 25.7322L17.5094 25.6547Z" fill="#26434C"/>
<path d="M84.314 49.6845C84.3915 47.5143 84.624 45.2795 85.0115 42.9802C85.2182 41.5334 85.3603 40.3966 85.4378 39.5699C85.4637 39.389 85.4766 39.1048 85.4766 38.7173C85.4766 37.8389 85.3603 36.7538 85.1278 35.462C84.9211 34.0669 84.8178 33.0593 84.8178 32.4392C84.8178 31.0441 85.1278 29.959 85.7479 29.184C86.3937 28.3831 87.4788 27.9826 89.0031 27.9826C90.6566 27.9826 91.858 28.3314 92.6072 29.0289C93.3564 29.7007 93.6665 30.9408 93.5373 32.7493C93.4856 33.5243 93.4598 34.0281 93.4598 34.2607C93.4598 35.3716 93.576 36.1079 93.8086 36.4696C94.0411 36.8055 94.3124 36.9734 94.6224 36.9734C94.9066 36.9734 95.1262 36.8055 95.2812 36.4696C95.4362 36.1079 95.5137 35.4103 95.5137 34.3769L95.475 33.4468C95.4233 32.8268 95.3975 32.3359 95.3975 31.9742C95.3975 30.5016 95.7592 29.4811 96.4825 28.9127C97.2318 28.3443 98.3556 28.0343 99.8541 27.9826C101.327 27.9309 102.334 28.3055 102.877 29.1064C103.419 29.9074 103.704 31.0312 103.729 32.478C103.729 33.098 103.626 34.0798 103.419 35.4233C103.213 36.87 103.109 37.9551 103.109 38.6785C103.109 39.0661 103.122 39.3632 103.148 39.5699C103.277 40.7325 103.471 41.9726 103.729 43.2902C103.962 44.5045 104.143 45.5637 104.272 46.468C104.401 47.3464 104.492 48.354 104.543 49.4907C104.698 53.3144 103.2 55.2262 100.048 55.2262C98.3427 55.2262 97.1284 54.7483 96.405 53.7924C95.7075 52.8364 95.3587 51.6222 95.3587 50.1495C95.3587 49.142 95.4362 47.9664 95.5912 46.623C95.6946 45.4862 95.7462 44.6982 95.7462 44.259C95.7462 43.794 95.6558 43.471 95.475 43.2902C95.3199 43.1093 95.0616 43.0189 94.6999 43.0189C93.899 43.0189 93.576 43.4581 93.7311 44.3365L93.9636 45.5766C94.2219 47.1009 94.3769 48.4056 94.4286 49.4907C94.4803 50.4725 94.2865 51.4026 93.8473 52.281C93.4339 53.1594 92.8139 53.8699 91.9872 54.4124C91.1604 54.955 90.2045 55.2262 89.1194 55.2262C87.3109 55.2262 86.032 54.6966 85.2828 53.6373C84.5594 52.5781 84.2365 51.2605 84.314 49.6845ZM85.8254 33.6793C85.8254 33.8602 85.8641 34.0152 85.9416 34.1444C86.045 34.2477 86.1612 34.2994 86.2904 34.2994C86.4454 34.2994 86.5617 34.2219 86.6392 34.0669C86.7167 33.886 86.7296 33.6535 86.6779 33.3693C86.4971 32.3359 86.4067 31.6254 86.4067 31.2379C86.4067 30.7212 86.5229 30.3595 86.7555 30.1528C86.988 29.9461 87.3755 29.8428 87.9181 29.8428C88.2797 29.8428 88.5769 29.8557 88.8094 29.8815H89.0807C89.3648 29.8815 89.5844 29.8428 89.7395 29.7653C89.9203 29.6619 90.0107 29.5457 90.0107 29.4165C90.0107 29.2873 89.9074 29.184 89.7007 29.1064C89.5199 29.0031 89.2744 28.9644 88.9644 28.9902C87.6984 29.0935 86.8459 29.4036 86.4067 29.9203C85.9933 30.4111 85.7866 31.2766 85.7866 32.5167C85.7866 33.0076 85.7995 33.3952 85.8254 33.6793ZM96.5988 33.6793C96.5988 33.8602 96.6376 34.0152 96.7151 34.1444C96.8184 34.2477 96.9347 34.2994 97.0638 34.2994C97.2189 34.2994 97.3351 34.2219 97.4126 34.0669C97.4901 33.886 97.5031 33.6535 97.4514 33.3693C97.2705 32.3359 97.1801 31.6254 97.1801 31.2379C97.1801 30.7212 97.2964 30.3595 97.5289 30.1528C97.7614 29.9461 98.1489 29.8428 98.6915 29.8428C99.0532 29.8428 99.3503 29.8557 99.5828 29.8815H99.8541C100.138 29.8815 100.358 29.8428 100.513 29.7653C100.694 29.6619 100.784 29.5457 100.784 29.4165C100.784 29.2873 100.681 29.184 100.474 29.1064C100.293 29.0031 100.048 28.9644 99.7378 28.9902C98.4719 29.0935 97.6193 29.4036 97.1801 29.9203C96.7667 30.4111 96.5601 31.2766 96.5601 32.5167C96.5601 33.0076 96.573 33.3952 96.5988 33.6793ZM102.102 53.2886C103.109 52.436 103.613 51.2088 103.613 49.607C103.613 49.0644 103.549 48.4961 103.419 47.9018C103.316 47.2818 103.213 46.7522 103.109 46.313C103.058 46.0546 102.967 45.8479 102.838 45.6929C102.709 45.5121 102.593 45.4216 102.489 45.4216C102.36 45.4216 102.296 45.5379 102.296 45.7704C102.296 45.9513 102.347 46.1838 102.451 46.468C102.683 47.2172 102.851 47.8243 102.954 48.2894C103.058 48.7544 103.109 49.2065 103.109 49.6457C103.109 50.9117 102.541 51.8934 101.404 52.591C101.068 52.8235 100.9 53.0302 100.9 53.2111C100.9 53.4694 101.068 53.5986 101.404 53.5986C101.663 53.5986 101.895 53.4953 102.102 53.2886Z" fill="#26434C"/>
<path d="M73.256 55.3038C71.2667 55.0196 69.5615 54.2187 68.1406 52.901C66.7196 51.5834 65.6474 49.9558 64.924 48.0181C64.2265 46.0546 63.8777 43.9878 63.8777 41.8176C63.8777 39.4407 64.304 37.2059 65.1565 35.1132C66.035 32.9947 67.3267 31.2896 69.0319 29.9978C70.737 28.6802 72.8039 28.0214 75.2324 28.0214C77.2993 28.0214 78.9657 28.6027 80.2316 29.7653C81.5234 30.9279 82.376 32.3488 82.7893 34.0281C82.996 34.9065 83.0994 35.7333 83.0994 36.5084C83.0994 37.9293 82.8281 39.1953 82.2855 40.3062C81.743 41.3913 80.9421 42.1018 79.8828 42.4376C79.1853 42.6443 78.5911 42.7477 78.1002 42.7477C76.4209 42.7477 75.2453 41.7401 74.5736 39.7249C74.4444 39.3374 74.3799 38.8594 74.3799 38.291C74.3799 37.8518 74.4057 37.4126 74.4574 36.9734C74.5349 36.5084 74.5865 36.2112 74.6124 36.0821C74.664 35.7204 74.7674 35.307 74.9224 34.842C74.9482 34.7645 74.987 34.6353 75.0387 34.4544C75.0903 34.2477 75.1032 34.1056 75.0774 34.0281C75.0774 33.9506 75.0387 33.9119 74.9612 33.9119C74.7803 33.9119 74.5736 34.1315 74.3411 34.5707C74.1086 35.0099 73.9019 35.5783 73.721 36.2758C73.566 36.9734 73.4885 37.7097 73.4885 38.4848C73.4885 38.9498 73.5273 39.4149 73.6048 39.8799C73.8115 41.12 74.2765 42.2051 74.9999 43.1352C75.7491 44.0653 76.7309 44.5303 77.9452 44.5303C78.3585 44.5303 78.6686 44.5045 78.8752 44.4528C79.0819 44.4011 79.379 44.3753 79.7666 44.3753C80.8517 44.3753 81.6784 44.7628 82.2468 45.5379C82.841 46.313 83.1381 47.2818 83.1381 48.4444C83.1381 49.2711 82.9831 50.0979 82.6731 50.9246C82.363 51.7514 81.9238 52.4877 81.3555 53.1336C79.9087 54.6837 77.8806 55.4588 75.2712 55.4588C74.8061 55.4588 74.1344 55.4071 73.256 55.3038ZM65.3503 38.9498C65.3503 39.1565 65.3891 39.3115 65.4666 39.4149C65.5441 39.5182 65.6345 39.5699 65.7379 39.5699C65.8929 39.5699 66.035 39.4924 66.1641 39.3374C66.2933 39.1565 66.3579 38.9369 66.3579 38.6785C66.3579 34.7515 68.076 31.9355 71.5121 30.2303C71.8738 30.0236 72.0546 29.8428 72.0546 29.6878C72.0546 29.5586 71.9642 29.494 71.7834 29.494C71.68 29.494 71.4733 29.5586 71.1633 29.6878C69.5873 30.4887 68.2439 31.7029 67.133 33.3306C66.0479 34.9324 65.4537 36.7925 65.3503 38.9111V38.9498ZM65.9316 42.2826C66.0608 42.2826 66.177 42.1922 66.2804 42.0113C66.3837 41.8047 66.4354 41.5592 66.4354 41.275C66.4354 41.0167 66.3837 40.7971 66.2804 40.6162C66.177 40.4095 66.0608 40.3062 65.9316 40.3062C65.8024 40.3062 65.6862 40.4095 65.5828 40.6162C65.4795 40.7971 65.4278 41.0167 65.4278 41.275C65.4278 41.5592 65.4795 41.8047 65.5828 42.0113C65.6862 42.1922 65.8024 42.2826 65.9316 42.2826ZM82.1305 49.3745C82.208 49.0645 82.2468 48.7157 82.2468 48.3281C82.2468 47.4756 82.0143 46.778 81.5492 46.2355C81.11 45.6671 80.3866 45.4216 79.379 45.4991C79.1465 45.525 78.9657 45.5896 78.8365 45.6929C78.7073 45.7704 78.6427 45.8608 78.6427 45.9642C78.6427 46.1709 78.8623 46.2355 79.3015 46.158C79.4565 46.1321 79.6503 46.1192 79.8828 46.1192C80.9938 46.1192 81.5492 46.6101 81.5492 47.5918C81.5492 48.0052 81.4071 48.5865 81.1229 49.3357C81.0971 49.3874 81.0842 49.4649 81.0842 49.5682C81.0842 49.6716 81.1229 49.7749 81.2004 49.8783C81.3038 49.9558 81.42 49.9945 81.5492 49.9945C81.6784 49.9945 81.7947 49.9429 81.898 49.8395C82.0272 49.7362 82.1047 49.5812 82.1305 49.3745Z" fill="#26434C"/>
<path d="M46.0146 30.6565C46.0405 29.8815 46.2472 29.3131 46.6347 28.9514C47.0481 28.5897 47.6423 28.3572 48.4174 28.2538C49.1924 28.1246 50.3034 28.0601 51.7501 28.0601H58.7645C60.0305 28.0601 61.0251 28.2797 61.7485 28.7189C62.4978 29.1322 62.8853 29.7781 62.9111 30.6565C63.0145 33.4468 63.0661 35.5653 63.0661 37.0121C63.0661 37.9422 62.9111 38.7043 62.6011 39.2985C62.2911 39.8669 61.9035 40.164 61.4385 40.1899C60.4567 40.2415 59.8109 40.0349 59.5008 39.5698C59.2166 39.1048 59.0745 38.2651 59.0745 37.0508C59.0745 36.7667 59.1004 36.3662 59.152 35.8495L59.1908 34.7644C59.1908 34.196 59.0745 33.9118 58.842 33.9118C58.4287 33.9118 58.222 34.4544 58.222 35.5395C58.222 36.0303 58.3253 37.18 58.532 38.9885C58.6612 40.1511 58.8808 41.3266 59.1908 42.5151C59.5267 43.7035 59.7204 44.3882 59.7721 44.569C60.108 45.7574 60.3534 46.7392 60.5084 47.5143C60.6893 48.2635 60.7797 48.9481 60.7797 49.5682C60.7797 50.5499 60.5472 51.4929 60.0821 52.3972C59.6429 53.3014 58.997 54.0378 58.1445 54.6061C57.3177 55.1745 56.336 55.4587 55.1992 55.4587C53.1324 55.4587 51.6081 54.9162 50.6263 53.8311C49.6445 52.7201 49.1537 51.4025 49.1537 49.8782C49.1537 48.819 49.3862 47.2947 49.8512 45.3053C50.3938 42.9543 50.7296 40.9649 50.8588 39.3373C51.0138 37.5288 51.0913 36.3533 51.0913 35.8107C51.0913 34.5448 50.9105 33.9118 50.5488 33.9118C50.2646 33.9118 50.1225 34.1702 50.1225 34.6869C50.1225 34.9194 50.1483 35.2553 50.2 35.6945C50.2775 36.1078 50.3292 36.4308 50.355 36.6633C50.4067 37.18 50.4325 37.5546 50.4325 37.7872C50.4325 39.3373 49.7866 40.1124 48.4949 40.1124C46.8414 40.1124 46.0146 39.0919 46.0146 37.0508V32.4392V30.6565ZM46.906 33.4855C46.9318 33.6664 46.9835 33.8214 47.061 33.9506C47.1643 34.0539 47.2806 34.1056 47.4098 34.1056C47.5389 34.1056 47.6423 34.0281 47.7198 33.8731C47.7973 33.6922 47.8102 33.4597 47.7585 33.1755C47.5777 32.0387 47.4873 31.2766 47.4873 30.8891C47.4873 30.3465 47.5906 29.9719 47.7973 29.7652C48.0298 29.5327 48.4303 29.4164 48.9987 29.4164C49.1537 29.4164 49.4895 29.4423 50.0062 29.4939C50.1096 29.5198 50.2517 29.5327 50.4325 29.5327C50.6651 29.5327 50.8459 29.5069 50.9751 29.4552C51.1301 29.3777 51.2076 29.3002 51.2076 29.2227C51.2076 29.1193 51.0913 29.0289 50.8588 28.9514C50.6263 28.848 50.3163 28.7964 49.9287 28.7964C48.792 28.7964 47.9911 29.016 47.526 29.4552C47.061 29.8944 46.8285 30.734 46.8285 31.9742C46.8285 32.2583 46.8543 32.7621 46.906 33.4855ZM59.4233 48.6769C59.5008 47.8501 59.4104 46.9588 59.152 46.0029C58.8937 45.0211 58.5578 43.9102 58.1445 42.6701C57.9894 42.2567 57.8344 42.05 57.6794 42.05C57.6019 42.05 57.5632 42.1405 57.5632 42.3213C57.5632 42.4247 57.6019 42.5797 57.6794 42.7863C58.3511 44.6207 58.687 46.1837 58.687 47.4755C58.687 47.863 58.6741 48.1472 58.6483 48.3281L58.6095 48.5994C58.6095 48.806 58.6483 48.974 58.7258 49.1032C58.8033 49.2065 58.9066 49.2582 59.0358 49.2582C59.1133 49.2582 59.1908 49.2065 59.2683 49.1032C59.3458 48.9998 59.3975 48.8577 59.4233 48.6769Z" fill="#26434C"/>
<path d="M25.3135 50.2658C25.3135 49.1548 25.3781 48.1602 25.5072 47.2818C25.6623 46.4034 25.8819 45.4216 26.1661 44.3365C26.4244 43.3031 26.6053 42.4505 26.7086 41.7788C26.8119 41.0812 26.8378 40.3449 26.7861 39.5698C26.6569 37.8905 26.5923 36.4696 26.5923 35.307C26.5923 33.1884 26.8249 31.6771 27.2899 30.7728C27.8841 29.6102 28.84 28.8093 30.1577 28.3701C31.5011 27.9051 33.2192 27.6725 35.3119 27.6725C37.4045 27.6725 39.1743 27.8663 40.6211 28.2538C42.0679 28.6414 43.0625 29.4294 43.6051 30.6178C44.1735 31.8837 44.4577 33.4726 44.4577 35.3845C44.4577 36.0562 44.4189 36.7667 44.3414 37.5159C44.3414 37.8001 44.3156 38.2264 44.2639 38.7948C44.2381 39.3373 44.2251 39.8411 44.2251 40.3061C44.2251 40.9262 44.2768 41.5204 44.3801 42.0888C44.4835 42.6572 44.6385 43.4193 44.8452 44.3753C45.1035 45.6154 45.2973 46.6359 45.4265 47.4368C45.5557 48.2118 45.6203 49.1161 45.6203 50.1495C45.6203 51.648 45.3102 52.8493 44.6902 53.7536C44.0701 54.6578 42.9204 55.2004 41.2411 55.3812C41.0344 55.4071 40.7373 55.42 40.3498 55.42C38.748 55.42 37.5725 54.942 36.8232 53.9861C36.074 53.0043 35.6994 51.7901 35.6994 50.3433C35.6994 49.9041 35.7123 49.5811 35.7381 49.3744C36.0223 46.7651 36.1644 45.1632 36.1644 44.569C36.1644 43.6648 35.9836 43.2127 35.6219 43.2127C35.3119 43.2127 35.0922 43.3935 34.9631 43.7552C34.8597 44.1169 34.8081 44.6724 34.8081 45.4216C34.8081 45.7575 34.8339 46.3904 34.8856 47.3205C34.9631 49.0257 35.0018 49.9687 35.0018 50.1495C35.0018 53.6373 33.3225 55.3812 29.9639 55.3812C28.2071 55.3812 26.9928 54.9033 26.3211 53.9473C25.6493 52.9914 25.3135 51.7642 25.3135 50.2658ZM27.7937 34.1444C27.7937 34.3252 27.8324 34.4673 27.91 34.5706C28.0133 34.674 28.1425 34.7257 28.2975 34.7257C28.4783 34.7257 28.6204 34.6482 28.7238 34.4931C28.853 34.3123 28.9046 34.0798 28.8788 33.7956C28.8271 33.0722 28.8013 32.6201 28.8013 32.4392C28.8013 31.5608 28.9563 30.9795 29.2663 30.6953C29.5764 30.3853 30.1964 30.2044 31.1265 30.1528C31.359 30.1269 31.5528 30.0494 31.7078 29.9202C31.8886 29.7911 31.9791 29.649 31.9791 29.494C31.9791 29.3648 31.9145 29.2614 31.7853 29.1839C31.6561 29.1064 31.4623 29.0806 31.204 29.1064C30.2222 29.2098 29.4084 29.6748 28.7625 30.5015C28.1166 31.3283 27.7937 32.5426 27.7937 34.1444ZM35.3894 37.6709C35.6736 37.6709 35.8932 37.503 36.0482 37.1671C36.229 36.8313 36.3194 36.4308 36.3194 35.9658C36.3194 35.4232 36.229 34.9453 36.0482 34.5319C35.8673 34.1185 35.6348 33.9118 35.3506 33.9118C35.0406 33.9118 34.7951 34.0927 34.6143 34.4544C34.4593 34.7903 34.3818 35.2165 34.3818 35.7333C34.3818 36.25 34.4722 36.7021 34.653 37.0896C34.8339 37.4772 35.0793 37.6709 35.3894 37.6709ZM43.1013 53.4048C44.0572 52.6556 44.5352 51.5576 44.5352 50.1108C44.5352 49.284 44.3672 48.3798 44.0314 47.398C43.9022 47.0105 43.7343 46.8167 43.5276 46.8167C43.4501 46.8167 43.3726 46.8684 43.2951 46.9717C43.2434 47.0751 43.2175 47.2043 43.2175 47.3593C43.2175 47.4109 43.2434 47.5401 43.2951 47.7468C43.6567 48.8319 43.8376 49.7103 43.8376 50.382C43.8376 51.4671 43.4501 52.2422 42.675 52.7072C42.3133 52.9139 42.1324 53.1206 42.1324 53.3273C42.1324 53.534 42.2616 53.6373 42.52 53.6373C42.7267 53.6373 42.9204 53.5598 43.1013 53.4048Z" fill="#26434C"/>
<path d="M0.562811 49.6845C0.614482 48.3669 0.691989 47.2301 0.795331 46.2742C0.924509 45.2924 1.09244 44.1169 1.29913 42.7476C1.50581 41.4042 1.64791 40.3449 1.72541 39.5699C1.75125 39.389 1.76417 39.1177 1.76417 38.756C1.76417 38.136 1.71249 37.4772 1.60915 36.7796C1.50581 36.0562 1.44122 35.617 1.41539 35.462C1.18287 34.1961 1.06661 33.2014 1.06661 32.478C1.06661 29.4811 2.44881 27.9826 5.21322 27.9826C6.22081 27.9826 7.06046 28.1118 7.73219 28.3701C8.42975 28.6285 9.0498 29.1452 9.59235 29.9203C10.1349 30.6953 10.587 31.845 10.9487 33.3693C11.1296 34.1444 11.3104 34.7386 11.4913 35.152C11.6721 35.5395 11.9046 35.7204 12.1888 35.6945C12.3955 35.6687 12.5893 35.4362 12.7701 34.997C12.951 34.5319 13.1835 33.8731 13.4677 33.0205C14.0619 31.1862 14.8241 29.8944 15.7541 29.1452C16.6842 28.3701 17.8597 27.9826 19.2807 27.9826C20.65 27.9826 21.593 28.3831 22.1097 29.184C22.6264 29.959 22.8977 31.057 22.9235 32.478C22.9235 33.0205 22.9106 33.5114 22.8848 33.9506C22.8589 34.3898 22.8331 34.7774 22.8073 35.1132C22.7039 36.405 22.6522 37.3868 22.6522 38.0585C22.6522 38.3943 22.6781 38.8981 22.7298 39.5699C22.8073 40.2158 22.8718 40.7971 22.9235 41.3138C23.001 41.8305 23.0656 42.2955 23.1173 42.7089C23.479 45.3441 23.6986 47.6047 23.7761 49.4907C23.8536 51.0925 23.5048 52.4489 22.7298 53.5598C21.9805 54.6449 20.7792 55.2004 19.1257 55.2262C17.6014 55.2521 16.4 55.1358 15.5216 54.8775C14.669 54.6191 14.0361 54.1541 13.6227 53.4823C13.2352 52.7848 13.0931 51.7901 13.1964 50.4983C13.4289 47.9923 13.9457 45.3958 14.7466 42.7089C14.9016 42.218 15.0049 41.7917 15.0566 41.43C15.1341 41.0683 15.1341 40.8616 15.0566 40.81C15.0307 40.7841 14.992 40.7583 14.9403 40.7325C14.9145 40.7066 14.8757 40.6937 14.8241 40.6937C14.669 40.6937 14.5399 41.0167 14.4365 41.6625C13.9973 44.0911 13.4548 45.3054 12.8089 45.3054C12.318 45.3054 11.8917 45.047 11.53 44.5303C11.1683 43.9878 10.7937 43.161 10.4062 42.0501C10.277 41.6884 10.1349 41.43 9.97989 41.275C9.82487 41.12 9.66986 41.0942 9.51485 41.1975C9.48901 41.2233 9.57943 41.5334 9.78612 42.1276C10.2253 43.2385 10.6129 44.4011 10.9487 45.6154C11.3104 46.8297 11.5429 48.1731 11.6463 49.6458C11.7755 51.3767 11.4008 52.746 10.5224 53.7536C9.66986 54.7612 8.28765 55.265 6.37582 55.265C2.34547 55.265 0.407797 53.4048 0.562811 49.6845ZM2.26796 33.4856C2.26796 33.6664 2.30671 33.8214 2.38422 33.9506C2.48756 34.054 2.60382 34.1056 2.733 34.1056C2.88801 34.1056 3.00427 34.0281 3.08178 33.8731C3.15929 33.6923 3.17221 33.4597 3.12053 33.1756C2.93969 32.1421 2.84926 31.4317 2.84926 31.0441C2.84926 30.5274 2.96552 30.1657 3.19804 29.959C3.43056 29.7523 3.8181 29.649 4.36064 29.649C4.72234 29.649 5.01945 29.6619 5.25197 29.6878H5.52325C5.80744 29.6878 6.02704 29.649 6.18205 29.5715C6.3629 29.4681 6.45333 29.3519 6.45333 29.2227C6.45333 29.0935 6.34998 28.9902 6.1433 28.9127C5.96245 28.8093 5.71701 28.7706 5.40699 28.7964C4.14104 28.8998 3.28847 29.2098 2.84926 29.7265C2.43589 30.2174 2.22921 31.0829 2.22921 32.323C2.22921 32.8139 2.24212 33.2014 2.26796 33.4856ZM14.4753 33.4856C14.4753 33.6148 14.5011 33.7181 14.5528 33.7956C14.6303 33.8731 14.7207 33.9119 14.8241 33.9119C14.9532 33.9119 15.0824 33.8473 15.2116 33.7181C15.3408 33.5889 15.4183 33.3952 15.4441 33.1368C15.6508 31.7675 16.0512 30.7987 16.6455 30.2303C17.2397 29.6361 18.0793 29.3648 19.1644 29.4165H19.2419C19.4486 29.4165 19.6036 29.3906 19.707 29.339C19.8362 29.2615 19.9008 29.184 19.9008 29.1065C19.9008 29.0289 19.8362 28.9644 19.707 28.9127C19.6036 28.861 19.4228 28.8352 19.1644 28.8352C17.8985 28.8352 16.8909 29.2098 16.1417 29.959C15.3924 30.7083 14.8499 31.8192 14.514 33.2918L14.4753 33.4856ZM21.6059 53.056C22.4843 51.971 22.9235 50.4725 22.9235 48.5607C22.9235 47.8373 22.8589 47.1268 22.7298 46.4292C22.6264 45.7058 22.4972 45.1116 22.3422 44.6466C22.2647 44.3882 22.1614 44.259 22.0322 44.259C21.9547 44.259 21.9159 44.3365 21.9159 44.4915C21.9159 44.6207 21.9288 44.7241 21.9547 44.8016C22.0322 45.0083 22.0968 45.3958 22.1484 45.9642C22.226 46.5067 22.2647 47.088 22.2647 47.7081C22.2647 49.8008 21.8255 51.4026 20.9471 52.5135C20.8438 52.6168 20.7921 52.746 20.7921 52.901C20.7921 53.0302 20.8179 53.1336 20.8696 53.2111C20.9471 53.2886 21.0375 53.3273 21.1409 53.3273C21.2959 53.3273 21.4509 53.2369 21.6059 53.056Z" fill="#26434C"/>
</svg>
